<svg width="17" height="15" viewBox="0 0 17 15" fill="none" xmlns="http://www.w3.org/2000/svg">
<path d="M15.1908 6.39963H3.6404L7.17565 2.15343C7.34096 1.95455 7.42049 1.69814 7.39675 1.44062C7.373 1.18309 7.24793 0.945547 7.04904 0.780239C6.85016 0.614931 6.59375 0.535401 6.33623 0.559144C6.0787 0.582888 5.84116 0.70796 5.67585 0.906846L0.806363 6.75023C0.773602 6.79671 0.744306 6.84553 0.718712 6.89631C0.718712 6.94501 0.718713 6.97423 0.65054 7.02292C0.606397 7.13459 0.583283 7.25345 0.582367 7.37352C0.583283 7.49359 0.606397 7.61246 0.65054 7.72413C0.65054 7.77282 0.65054 7.80204 0.718712 7.85073C0.744306 7.90151 0.773602 7.95034 0.806363 7.99682L5.67585 13.8402C5.76742 13.9501 5.88208 14.0385 6.01169 14.0991C6.1413 14.1597 6.28267 14.191 6.42575 14.1908C6.6533 14.1912 6.87383 14.112 7.04904 13.9668C7.14766 13.8851 7.22918 13.7846 7.28893 13.6713C7.34868 13.558 7.38549 13.434 7.39725 13.3065C7.40901 13.1789 7.39549 13.0503 7.35746 12.928C7.31944 12.8056 7.25766 12.692 7.17565 12.5936L3.6404 8.34742H15.1908C15.4491 8.34742 15.6968 8.24481 15.8795 8.06217C16.0621 7.87953 16.1647 7.63182 16.1647 7.37352C16.1647 7.11523 16.0621 6.86752 15.8795 6.68487C15.6968 6.50223 15.4491 6.39963 15.1908 6.39963Z" fill="#F7981D"/>
</svg>
