<svg width="17" height="15" viewBox="0 0 17 15" fill="none" xmlns="http://www.w3.org/2000/svg">
<path d="M1.8858 6.39963H13.4362L9.90098 2.15343C9.73567 1.95455 9.65614 1.69814 9.67988 1.44062C9.70363 1.18309 9.8287 0.945547 10.0276 0.780239C10.2265 0.614931 10.4829 0.535401 10.7404 0.559144C10.9979 0.582888 11.2355 0.70796 11.4008 0.906846L16.2703 6.75023C16.303 6.79671 16.3323 6.84553 16.3579 6.89631C16.3579 6.94501 16.3579 6.97423 16.4261 7.02292C16.4702 7.13459 16.4933 7.25345 16.4943 7.37352C16.4933 7.49359 16.4702 7.61246 16.4261 7.72413C16.4261 7.77282 16.4261 7.80204 16.3579 7.85073C16.3323 7.90151 16.303 7.95034 16.2703 7.99682L11.4008 13.8402C11.3092 13.9501 11.1945 14.0385 11.0649 14.0991C10.9353 14.1597 10.794 14.191 10.6509 14.1908C10.4233 14.1912 10.2028 14.112 10.0276 13.9668C9.92897 13.8851 9.84745 13.7846 9.7877 13.6713C9.72795 13.558 9.69114 13.434 9.67938 13.3065C9.66762 13.1789 9.68114 13.0503 9.71917 12.928C9.75719 12.8056 9.81897 12.692 9.90098 12.5936L13.4362 8.34742H1.8858C1.62751 8.34742 1.3798 8.24481 1.19715 8.06217C1.01451 7.87953 0.911907 7.63182 0.911907 7.37352C0.911907 7.11523 1.01451 6.86752 1.19715 6.68487C1.3798 6.50223 1.62751 6.39963 1.8858 6.39963Z" fill="white"/>
</svg>
