<svg width="17" height="20" viewBox="0 0 17 20" fill="none" xmlns="http://www.w3.org/2000/svg">
<path fill-rule="evenodd" clip-rule="evenodd" d="M8.69608 0.0307813C10.9118 0.0405852 13.0294 0.922938 14.5784 2.47196C16.1373 4.03078 17.0098 6.13862 17 8.3249V8.37392C16.9412 11.3445 15.2745 14.0798 13.1961 16.2171C12.0196 17.4229 10.7157 18.4916 9.29412 19.3935C8.91177 19.7171 8.35294 19.7171 7.97059 19.3935C5.86275 18.021 4 16.2955 2.4902 14.2857C1.16667 12.5406 0.411765 10.4425 0.333334 8.25627C0.352942 3.69745 4.09804 0.0209774 8.69608 0.0307813ZM8.69596 11.0701C9.39204 11.0701 10.0587 10.8054 10.5489 10.325C11.0587 9.82498 11.344 9.1593 11.344 8.46224C11.344 7.01126 10.1567 5.84459 8.69596 5.84459C7.23517 5.84459 6.0587 7.01126 6.0587 8.46224C6.0587 9.89459 7.21557 11.0505 8.66655 11.0701H8.69596Z" fill="#F7981D"/>
</svg>
