<svg width="195" height="94" viewBox="0 0 195 94" fill="none" xmlns="http://www.w3.org/2000/svg">
<path d="M56.5914 31.4615H56.7766L56.7739 31.4316C56.7521 31.0012 56.8148 30.5871 56.9537 30.1976C59.8057 22.2818 64.7878 15.2868 71.3606 9.9669C71.9 9.53107 72.5428 9.28047 73.2211 9.24234L73.7114 9.2151L76.6015 11.0401C76.7513 11.1327 76.9229 11.1845 77.0972 11.1845C77.6448 11.1845 78.9904 11.1845 79.704 11.1845C80.0227 11.1845 80.3169 11.0211 80.5022 10.7323C80.6738 10.4627 80.6928 10.1303 80.5566 9.8416C80.4204 9.55558 80.148 9.36219 79.8321 9.32678L78.816 9.21237C78.5545 9.18241 78.3257 9.01624 78.2195 8.77654L77.8981 8.04925C77.8136 7.8613 77.8136 7.65155 77.8926 7.46088C77.9716 7.2702 78.1214 7.12583 78.3148 7.05229L79.2573 6.69545C79.4262 6.63008 79.6142 6.63008 79.783 6.69545L80.5948 7.00326C80.7582 7.06591 80.9353 7.07953 81.1069 7.04684L83.2506 6.61918C83.3596 6.59739 83.4631 6.55653 83.5557 6.4966L85.5605 5.22997C85.8166 5.06653 86.1543 5.0856 86.4104 5.28717C86.5602 5.4043 86.6528 5.57318 86.6719 5.76386C86.691 5.95454 86.6365 6.13704 86.5166 6.28413L84.7352 8.44967C84.4437 8.80378 84.4628 9.32405 84.7815 9.65365L84.9613 9.83888C85.2854 10.1766 85.8084 10.2121 86.1789 9.9206L86.5112 9.65637C86.6501 9.54741 86.7536 9.40032 86.8081 9.23144L87.5027 7.1449C87.5817 6.90519 87.786 6.72269 88.0311 6.66821L88.6903 6.52384C89.0744 6.4394 89.4503 6.67366 89.5456 7.05229L89.7445 7.8504C89.8235 8.16365 90.0632 8.41153 90.3737 8.50142L91.6022 8.85553C91.8719 8.9318 92.1688 8.88005 92.3949 8.71117L95.2441 6.59467C95.3722 6.49933 95.5301 6.45029 95.6936 6.45302L98.5782 6.52929C98.7362 6.53473 98.8915 6.59194 99.0168 6.69272L101.602 8.8065C101.768 8.9427 101.989 9.01625 102.196 9.0108L103.223 8.989C103.419 8.989 103.604 9.0571 103.743 9.1933C103.882 9.3295 103.961 9.512 103.961 9.70813V11.7647C103.961 11.9962 103.849 12.2169 103.658 12.3503L102.449 13.2166C102.16 13.4236 101.768 13.3909 101.515 13.1376L98.3549 9.93966C98.1751 9.75716 97.9218 9.65909 97.6657 9.66999L96.5026 9.7272C96.2792 9.73809 96.0695 9.83071 95.9115 9.98869L92.8498 13.0095C92.7054 13.1512 92.5066 13.2275 92.305 13.2166L90.1095 13.1049C90.0169 13.0994 89.927 13.0776 89.8426 13.0395L87.6416 12.0208C87.342 11.8818 86.9906 11.9172 86.7236 12.1134L83.632 14.3879C83.1362 14.7529 82.8965 15.3794 83.0218 15.9814L83.0409 16.0712C83.1934 16.7985 83.8417 17.327 84.5854 17.327H84.6262C85.3835 17.327 86.0072 17.9426 86.0154 18.6999L86.0209 19.103C86.029 19.7622 86.4349 20.3397 87.056 20.5712L87.0805 20.5821C87.7261 20.8218 88.4397 20.6148 88.8565 20.07L89.848 18.7734C90.2212 18.2858 90.8777 18.1006 91.4497 18.324L92.8961 18.8851C93.4382 19.0948 94.051 18.9913 94.4923 18.6154L96.3119 17.0628C96.6742 16.7522 97.1836 16.6514 97.6385 16.7958L98.6027 17.1036C98.9323 17.2099 99.2102 17.4332 99.3845 17.7329L100.431 19.5416C100.646 19.9147 100.676 20.3751 100.51 20.7728L100.485 20.8354C100.267 21.3557 99.7631 21.6907 99.1993 21.6907H94.8682C94.5168 21.6907 94.1709 21.8106 93.8958 22.0258L92.4439 23.1617C92.2614 23.3033 92.1143 23.4804 92.0108 23.6874L89.8371 27.9558C89.7118 28.201 89.5184 28.3944 89.276 28.5197L83.553 31.4533H83.9588L89.3604 28.6858C89.6383 28.5442 89.8616 28.3208 90.0033 28.0402L92.177 23.7718C92.2696 23.5893 92.3976 23.4341 92.5583 23.306L94.0102 22.1702C94.2553 21.9795 94.5577 21.8732 94.8682 21.8732H99.1993C99.8367 21.8732 100.409 21.4919 100.657 20.9035L100.681 20.8409C100.869 20.3887 100.836 19.8684 100.591 19.4435L99.5452 17.6348C99.3491 17.2943 99.0331 17.041 98.6599 16.9211L97.6957 16.6133C97.1809 16.4472 96.6034 16.5643 96.1921 16.9157L94.3725 18.4683C93.9829 18.8006 93.4409 18.8933 92.9642 18.7053L91.5178 18.1442C90.8695 17.8936 90.1231 18.1033 89.7009 18.6535L88.7094 19.9501C88.3417 20.4323 87.7124 20.6121 87.1459 20.4023L87.1213 20.3914C86.5711 20.1871 86.2115 19.6777 86.2061 19.0948L86.2006 18.6917C86.1897 17.8336 85.4842 17.1363 84.6262 17.1363H84.5854C83.9289 17.1363 83.3569 16.6705 83.2234 16.0277L83.2043 15.9378C83.0926 15.4066 83.3051 14.8537 83.7437 14.5322L86.8353 12.2577C87.0478 12.1025 87.3284 12.0752 87.5653 12.1842L89.7663 13.2029C89.8725 13.252 89.9842 13.2792 90.1013 13.2847L92.2968 13.3963C92.5502 13.41 92.798 13.3146 92.9805 13.1348L96.0422 10.114C96.1675 9.98869 96.3364 9.91515 96.5135 9.90698L97.6766 9.84977C97.8836 9.83887 98.0825 9.91787 98.2268 10.0622L101.387 13.2601C101.703 13.5788 102.196 13.6224 102.561 13.3582L103.77 12.492C104.007 12.3231 104.149 12.048 104.149 11.7538V9.69723C104.149 9.45208 104.051 9.22054 103.876 9.04893C103.699 8.87732 103.465 8.78471 103.223 8.79016L102.196 8.81195C102.021 8.8174 101.855 8.75747 101.724 8.64851L99.1394 6.53474C98.9841 6.40944 98.788 6.33589 98.5891 6.33044L95.7045 6.25417C95.5056 6.24873 95.3013 6.31138 95.1379 6.43395L92.2887 8.55045C92.1089 8.68393 91.8746 8.7275 91.6594 8.66485L90.4309 8.31075C90.1858 8.23992 89.9924 8.04108 89.9324 7.7932L89.7336 6.99509C89.6137 6.51567 89.1425 6.22148 88.6604 6.32772L88.0012 6.47209C87.6906 6.54018 87.4346 6.769 87.3365 7.07136L86.6419 9.1579C86.5983 9.29137 86.5166 9.40849 86.4049 9.49566L86.0726 9.75988C85.7784 9.99142 85.3644 9.96417 85.1056 9.6945L84.9258 9.50928C84.6725 9.24506 84.6562 8.83374 84.8877 8.55045L86.6692 6.38492C86.8217 6.19969 86.8925 5.96544 86.8653 5.72573C86.8408 5.48602 86.7209 5.27355 86.5194 5.11284C86.2143 4.87314 85.7948 4.84861 85.4679 5.05563L83.4631 6.32227C83.3895 6.36858 83.3078 6.40126 83.2207 6.4176L81.0769 6.84526C80.938 6.8725 80.7963 6.86161 80.6656 6.81258L79.8539 6.50477C79.6414 6.42305 79.4071 6.42305 79.1947 6.50477L78.2522 6.86161C78.0098 6.9515 77.8218 7.134 77.7237 7.37098C77.623 7.60797 77.6257 7.86947 77.7319 8.10645L78.0533 8.83375C78.1868 9.13338 78.4701 9.34312 78.797 9.38125L79.813 9.49566C80.0663 9.5229 80.2815 9.67817 80.3905 9.90698C80.4994 10.1358 80.4858 10.4027 80.336 10.6343C80.1971 10.8522 79.9628 10.9829 79.7068 10.9829C78.9931 10.9829 77.6502 10.9829 77.1 10.9829C76.961 10.9829 76.8221 10.9421 76.705 10.8685L73.7876 9.02714L73.7631 9.0108L73.2129 9.04076C73.0195 9.05166 72.8288 9.0789 72.6409 9.12248C80.1753 3.50844 89.5075 0.182508 99.6024 0.182508C111.661 0.182508 122.631 4.92761 130.748 12.6473C130.672 12.6473 130.595 12.6582 130.522 12.6799L127.899 13.4699C127.55 13.5734 127.319 13.8894 127.319 14.2517V14.6439C127.319 15.0934 127.684 15.4611 128.136 15.4611H128.648C128.986 15.4611 129.263 15.728 129.277 16.0658L129.288 16.3328C129.307 16.7713 129.664 17.1145 130.105 17.1145H131.936C132.17 17.1145 132.385 17.2453 132.494 17.4523C132.598 17.6484 132.589 17.8799 132.475 18.0706C132.361 18.2613 132.159 18.3757 131.936 18.3757H130.427C130.239 18.3757 130.056 18.4411 129.912 18.5582L125.69 21.9876L123.903 23.9598C123.35 24.57 122.557 24.9213 121.732 24.9213H118.351C117.823 24.9213 117.341 25.1883 117.063 25.6377C116.752 26.1389 116.763 26.7791 117.087 27.2694L118.605 29.5657C118.948 30.0859 119.563 30.3393 120.176 30.214L120.501 30.1459C120.988 30.0451 121.394 29.7128 121.587 29.2551L122.097 28.0539C122.198 27.8169 122.361 27.6153 122.573 27.4737L125.513 25.4825C125.976 25.1692 126.559 25.1093 127.076 25.3218L127.795 25.6187C128.299 25.8257 128.866 25.8012 129.351 25.5506C129.925 25.2509 130.628 25.3163 131.138 25.7167L133.763 27.7706C133.902 27.8795 133.962 28.0593 133.919 28.2309L133.483 29.9279C133.415 30.1894 133.524 30.4646 133.75 30.6116L134.235 30.9249C134.338 30.993 134.458 31.0257 134.575 31.0257C134.739 31.0257 134.899 30.963 135.022 30.8432L136.545 29.3205C136.713 29.1516 136.773 28.8956 136.694 28.6695L136.136 27.0515C136.12 27.0024 136.095 26.9561 136.068 26.9125L135.444 25.9619C135.349 25.8148 135.346 25.6296 135.441 25.4825C135.537 25.3327 135.703 25.2564 135.877 25.2809C136.019 25.3 136.141 25.3899 136.207 25.5152L137.013 27.0705C137.038 27.1168 137.068 27.1631 137.103 27.2013L139.383 29.7291C139.544 29.9089 139.789 29.9797 140.02 29.9116L140.946 29.6501C141.23 29.5711 141.42 29.2987 141.404 29.0072L141.344 28.0185C141.813 29.1407 142.238 30.2848 142.616 31.4506H142.714H142.812C142.371 30.0887 141.867 28.7539 141.306 27.4519C141.298 27.3974 141.284 27.3429 141.262 27.2912C138.893 21.8896 135.553 17.0437 131.334 12.8842C131.266 12.8161 131.181 12.7671 131.097 12.729C122.928 4.85407 111.822 0 99.6052 0C89.2814 0 79.7504 3.46758 72.1152 9.29409C71.8073 9.42212 71.5159 9.591 71.2489 9.80891C64.6488 15.1506 59.6477 22.1756 56.7848 30.1213C56.7085 30.3284 56.6568 30.5463 56.6241 30.7642C56.5478 30.9903 56.4716 31.2191 56.398 31.4479H56.4961H56.5914V31.4615ZM140.897 29.4812L139.971 29.7427C139.808 29.789 139.636 29.74 139.522 29.612L137.242 27.0869C137.217 27.0596 137.196 27.0269 137.176 26.9943L136.37 25.4389C136.278 25.2591 136.101 25.1338 135.902 25.1066C135.654 25.0712 135.417 25.1801 135.283 25.3926C135.15 25.6023 135.15 25.8638 135.289 26.0736L135.913 27.0242C135.932 27.0542 135.948 27.0869 135.962 27.1223L136.52 28.7403C136.574 28.8983 136.534 29.0781 136.414 29.1979L134.891 30.7206C134.744 30.8677 134.512 30.8922 134.338 30.7805L133.853 30.4673C133.693 30.3638 133.616 30.1704 133.665 29.9851L134.101 28.2881C134.164 28.0457 134.077 27.7896 133.88 27.6371L131.255 25.5833C130.925 25.3245 130.522 25.1937 130.116 25.1937C129.825 25.1937 129.533 25.2618 129.266 25.4007C128.83 25.6268 128.321 25.6486 127.869 25.4634L127.15 25.1665C126.575 24.9295 125.927 24.9976 125.412 25.3463L122.473 27.3375C122.23 27.5009 122.042 27.7297 121.928 27.9994L121.418 29.2006C121.247 29.6011 120.89 29.8953 120.465 29.9824L120.141 30.0505C119.607 30.1622 119.065 29.9388 118.763 29.4812L117.245 27.1849C116.962 26.7545 116.951 26.1907 117.224 25.7521C117.469 25.3572 117.891 25.1229 118.354 25.1229H121.734C122.612 25.1229 123.453 24.7497 124.042 24.1014L125.818 22.1402L130.029 18.7189C130.141 18.629 130.282 18.5773 130.427 18.5773H131.936C132.224 18.5773 132.486 18.4302 132.633 18.185C132.783 17.9372 132.791 17.6375 132.657 17.3842C132.516 17.1145 132.238 16.9456 131.936 16.9456H130.105C129.765 16.9456 129.49 16.6787 129.476 16.3409L129.465 16.074C129.446 15.6354 129.089 15.2922 128.648 15.2922H128.136C127.787 15.2922 127.504 15.0089 127.504 14.6603V14.268C127.504 13.9874 127.684 13.745 127.953 13.6633L130.576 12.8733C130.797 12.8052 131.039 12.8652 131.203 13.0259C135.406 17.1663 138.732 21.9931 141.091 27.3729C141.113 27.4219 141.123 27.4737 141.129 27.5281L141.222 29.0236C141.232 29.2333 141.096 29.424 140.897 29.4812Z" fill="white"/>
<path d="M131.658 31.4612C131.729 30.8211 131.404 30.1728 130.805 29.8732C130.279 29.6117 129.658 29.6607 129.182 30.0012L127.523 31.1915C127.297 31.355 127.03 31.4449 126.749 31.4503L126.327 31.4612H127.433C127.501 31.4258 127.566 31.3877 127.629 31.3414L129.288 30.151C129.707 29.8486 130.258 29.8051 130.721 30.0366C131.255 30.3035 131.543 30.8865 131.473 31.4585H131.658V31.4612Z" fill="white"/>
<path d="M142.812 62.5575H142.739H142.657C141.025 67.6758 138.484 72.4917 135.093 76.8419C134.967 77.0026 134.771 77.0843 134.57 77.0571C134.368 77.0298 134.202 76.9045 134.123 76.7166C134.077 76.6076 134.066 76.4905 134.09 76.3788L134.717 73.4424C134.763 73.2218 134.709 72.9929 134.567 72.8159L133.129 71.0263C132.998 70.8628 132.968 70.6422 133.05 70.4488L135.316 65.1889C135.422 64.9437 135.39 64.6604 135.232 64.4452L133.84 62.5602H133.608L135.082 64.5569C135.202 64.7176 135.226 64.9328 135.147 65.1153L132.881 70.3752C132.772 70.6313 132.81 70.9255 132.984 71.1434L134.423 72.933C134.529 73.0665 134.57 73.2381 134.534 73.407L133.908 76.3434C133.875 76.4959 133.891 76.6512 133.951 76.7928C134.055 77.0407 134.278 77.2096 134.545 77.245C134.553 77.245 134.561 77.245 134.57 77.2477C126.27 87.359 113.68 93.8202 99.6051 93.8202C97.712 93.8202 95.8433 93.7003 94.0101 93.4742C94.0401 93.4579 94.0701 93.447 94.1 93.4307L94.6475 93.1147L94.4351 90.2573C94.4187 90.023 94.3425 89.7942 94.2172 89.5926L93.5389 88.5058C93.2011 87.9664 93.3183 87.2528 93.8113 86.8496L99.2456 82.4042C99.5588 82.1481 99.7386 81.7668 99.7359 81.3636L99.7304 80.0697C99.7277 79.5985 100.011 79.179 100.469 78.9965C100.918 78.8195 101.231 78.4299 101.308 77.956C101.411 77.324 101.564 76.3924 101.673 75.7332C101.746 75.2892 102.076 74.9242 102.512 74.8071L105.957 73.8701C106.785 73.644 107.355 72.8595 107.308 71.9987L107.159 69.2148C107.142 68.8934 107.216 68.5774 107.377 68.2996L109.18 65.178C109.4 64.7966 109.482 64.3472 109.409 63.9113L109.335 63.4701C109.275 63.1159 109.112 62.8027 108.88 62.5521H108.621C108.894 62.7945 109.087 63.1241 109.153 63.5027L109.226 63.944C109.291 64.3363 109.218 64.7421 109.019 65.0853L107.216 68.207C107.036 68.5148 106.954 68.8689 106.973 69.223L107.123 72.0069C107.164 72.7777 106.655 73.486 105.908 73.6876L102.463 74.6246C101.956 74.7608 101.575 75.183 101.487 75.7005C101.378 76.3597 101.223 77.2913 101.12 77.9233C101.054 78.3319 100.782 78.6669 100.376 78.8276C99.8639 79.0292 99.537 79.5168 99.5397 80.067L99.5452 81.3609C99.5452 81.7096 99.3926 82.0364 99.123 82.2571L93.6887 86.7025C93.1221 87.1656 92.9887 87.9801 93.3755 88.6011L94.0537 89.688C94.1627 89.8623 94.2281 90.0612 94.2444 90.2655L94.4487 93.0057L94.002 93.2618C93.5008 93.5505 92.9151 93.6622 92.3621 93.5778C92.0135 93.5233 91.6648 93.4661 91.3189 93.4061C90.8068 93.3163 90.3383 93.0684 89.9624 92.687L89.3685 92.0878L88.4778 87.1493L86.7345 84.5833C86.2632 83.8942 86.0753 83.0606 86.2033 82.2353L86.6092 79.6312C86.7236 78.9012 86.6037 78.1657 86.2633 77.5092C85.9909 76.9862 85.6558 76.3434 85.378 75.8122C85.0348 75.153 84.9258 74.4176 85.062 73.6794L85.0702 73.6385C85.3344 72.2221 84.6752 70.7811 83.4331 70.0565L80.276 68.2152L77.5357 64.3199C77.1707 63.8024 76.9937 63.1731 77.0209 62.5466H76.8357C76.8084 63.2113 76.9964 63.8759 77.3832 64.4262L80.1344 68.3377L83.3377 70.2145C84.5145 70.901 85.1383 72.2629 84.8877 73.6031L84.8795 73.644C84.7351 74.423 84.8495 75.2021 85.2118 75.8967C85.4869 76.4278 85.8247 77.0707 86.0944 77.5937C86.4158 78.2147 86.5302 78.9093 86.424 79.6012L86.0181 82.2053C85.8819 83.077 86.0807 83.9568 86.5792 84.6868L88.298 87.201L89.1915 92.1504L89.1969 92.1776L89.739 92.7252C74.0981 89.2331 61.489 77.6127 56.5886 62.5494H56.4906H56.3925C61.331 77.8007 74.1308 89.5436 89.995 92.9731C90.3682 93.2945 90.8095 93.5069 91.2862 93.5914C91.6349 93.6513 91.9835 93.7112 92.3349 93.763C92.4657 93.7821 92.5964 93.793 92.7272 93.793C93.0513 93.793 93.3727 93.7303 93.6805 93.6132C95.6173 93.8665 97.5948 94 99.5997 94C113.791 94 126.482 87.4516 134.815 77.2205C134.978 77.1824 135.128 77.087 135.234 76.9481C138.653 72.5653 141.208 67.7112 142.848 62.5494H142.812V62.5575Z" fill="white"/>
<path d="M17.6254 34.2944L13.7901 45.6669H12.5234L9.19207 35.9697L5.84435 45.6669H4.59406L0.761475 34.2944H1.99542L5.27776 44.0734L8.6718 34.2944H9.79406L13.1418 44.1224L16.4732 34.2944H17.6254Z" fill="white"/>
<path d="M24.1002 45.0107C23.1849 44.5068 22.4712 43.8176 21.9564 42.9405C21.4416 42.0634 21.1855 41.0773 21.1855 39.985C21.1855 38.89 21.4416 37.9067 21.9564 37.0296C22.4712 36.1525 23.1849 35.4606 24.1002 34.9594C25.0154 34.4582 26.0369 34.2048 27.1619 34.2048C28.2869 34.2048 29.3029 34.4554 30.2072 34.9512C31.1116 35.4497 31.8225 36.1388 32.3428 37.0214C32.8631 37.9039 33.1219 38.8927 33.1219 39.985C33.1219 41.0801 32.8631 42.0661 32.3428 42.9487C31.8225 43.8312 31.1116 44.5231 30.2072 45.0189C29.3029 45.5174 28.2869 45.7652 27.1619 45.7652C26.0342 45.7652 25.0154 45.5119 24.1002 45.0107ZM29.5998 44.0846C30.3244 43.6787 30.8937 43.1148 31.305 42.3957C31.7163 41.6766 31.9233 40.8703 31.9233 39.9823C31.9233 39.0943 31.7163 38.2907 31.305 37.5689C30.8937 36.8498 30.3244 36.2859 29.5998 35.8801C28.8752 35.4742 28.0608 35.2699 27.1619 35.2699C26.263 35.2699 25.4485 35.4742 24.7158 35.8801C23.9858 36.2859 23.411 36.8498 22.9942 37.5689C22.5775 38.288 22.3677 39.0943 22.3677 39.9823C22.3677 40.8703 22.5748 41.6739 22.9942 42.3957C23.411 43.1148 23.9858 43.6787 24.7158 44.0846C25.4458 44.4904 26.2602 44.6947 27.1619 44.6947C28.0608 44.692 28.8725 44.4904 29.5998 44.0846Z" fill="white"/>
<path d="M46.0552 45.6669L43.4565 42.0114C43.1651 42.044 42.86 42.0604 42.5467 42.0604H39.4932V45.6669H38.2919V34.2944H42.5467C43.9986 34.2944 45.1345 34.6404 45.9571 35.335C46.7797 36.0269 47.191 36.9802 47.191 38.1951C47.191 39.0831 46.965 39.8322 46.5182 40.4451C46.0688 41.058 45.4259 41.4992 44.5924 41.7689L47.3708 45.6669H46.0552ZM45.0963 40.2898C45.6929 39.7913 45.9898 39.094 45.9898 38.1951C45.9898 37.2744 45.6929 36.5689 45.0963 36.0759C44.4998 35.5829 43.639 35.3377 42.514 35.3377H39.4932V41.0389H42.514C43.639 41.0362 44.4998 40.7883 45.0963 40.2898Z" fill="white"/>
<path d="M52.5027 34.2944H53.704V44.6263H60.0726V45.6669H52.5027V34.2944Z" fill="white"/>
<path d="M64.5399 34.2944H69.1706C70.3718 34.2944 71.4342 34.5369 72.3548 35.0163C73.2755 35.4984 73.9892 36.1685 74.4986 37.0293C75.008 37.89 75.2613 38.8734 75.2613 39.9766C75.2613 41.0798 75.008 42.0631 74.4986 42.9239C73.9892 43.7846 73.2755 44.4574 72.3548 44.9369C71.4342 45.419 70.3718 45.6587 69.1706 45.6587H64.5399V34.2944ZM69.1052 44.6263C70.1021 44.6263 70.9738 44.4275 71.7202 44.0325C72.4665 43.6375 73.0467 43.09 73.458 42.3927C73.8693 41.6954 74.0764 40.8891 74.0764 39.9793C74.0764 39.0695 73.8693 38.2659 73.458 37.5659C73.0467 36.8658 72.4665 36.321 71.7202 35.9261C70.9738 35.5311 70.1021 35.3323 69.1052 35.3323H65.7438V44.6236H69.1052V44.6263Z" fill="white"/>
<path d="M96.0477 40.7692C96.4535 41.2514 96.6578 41.8724 96.6578 42.6297C96.6578 43.6049 96.2983 44.3539 95.5764 44.8797C94.8573 45.4054 93.7922 45.6669 92.384 45.6669H87.154V34.2944H92.0598C93.3264 34.2944 94.3098 34.5478 95.0071 35.0571C95.7044 35.5665 96.0558 36.2856 96.0558 37.2172C96.0558 37.8464 95.9006 38.3776 95.5928 38.8189C95.285 39.2574 94.86 39.5843 94.318 39.8022C95.0643 39.9657 95.6418 40.2871 96.0477 40.7692ZM88.3553 35.2859V39.4127H91.9781C92.8988 39.4127 93.607 39.2357 94.1055 38.8843C94.604 38.5329 94.8519 38.0208 94.8519 37.348C94.8519 36.6779 94.6013 36.1658 94.1055 35.8117C93.607 35.4603 92.8988 35.2832 91.9781 35.2832H88.3553V35.2859ZM94.6748 44.1578C95.1951 43.8119 95.4538 43.2698 95.4538 42.5344C95.4538 41.1152 94.4242 40.4069 92.3676 40.4069H88.3553V44.6781H92.3676C93.3864 44.6754 94.1545 44.5038 94.6748 44.1578Z" fill="white"/>
<path d="M105.527 41.736V45.6666H104.342V41.736L99.7931 34.2969H101.076L104.974 40.6818L108.872 34.2969H110.073L105.527 41.736Z" fill="white"/>
<path d="M121.138 34.2944H125.769C126.97 34.2944 128.032 34.5369 128.953 35.0163C129.873 35.4984 130.587 36.1685 131.097 37.0293C131.606 37.89 131.859 38.8734 131.859 39.9766C131.859 41.0798 131.606 42.0631 131.097 42.9239C130.587 43.7846 129.873 44.4574 128.953 44.9369C128.032 45.419 126.97 45.6587 125.769 45.6587H121.138V34.2944ZM125.7 44.6263C126.697 44.6263 127.569 44.4275 128.315 44.0325C129.062 43.6375 129.642 43.09 130.053 42.3927C130.465 41.6954 130.672 40.8891 130.672 39.9793C130.672 39.0695 130.465 38.2659 130.053 37.5659C129.642 36.8658 129.062 36.321 128.315 35.9261C127.569 35.5311 126.697 35.3323 125.7 35.3323H122.339V44.6236H125.7V44.6263Z" fill="white"/>
<path d="M145.065 44.6263V45.6669H137.024V34.2944H144.823V35.335H138.228V39.38H144.109V40.4042H138.228V44.6291H145.065V44.6263Z" fill="white"/>
<path d="M151.069 45.359C150.295 45.0894 149.696 44.7298 149.273 44.2858L149.745 43.3597C150.156 43.771 150.704 44.1033 151.384 44.3594C152.065 44.6127 152.771 44.7407 153.496 44.7407C154.514 44.7407 155.277 44.5528 155.786 44.1796C156.296 43.8064 156.549 43.3215 156.549 42.725C156.549 42.2701 156.41 41.9078 156.135 41.6354C155.86 41.3657 155.519 41.156 155.119 41.0089C154.719 40.8618 154.16 40.7038 153.447 40.5295C152.591 40.3143 151.907 40.1046 151.401 39.903C150.891 39.7014 150.456 39.3963 150.093 38.985C149.731 38.5737 149.549 38.0153 149.549 37.3125C149.549 36.7378 149.701 36.2148 150.003 35.7463C150.306 35.2777 150.772 34.8991 151.401 34.6158C152.03 34.3353 152.809 34.1936 153.741 34.1936C154.392 34.1936 155.026 34.2835 155.65 34.4606C156.274 34.6403 156.811 34.8855 157.265 35.1987L156.86 36.1576C156.383 35.8443 155.874 35.6073 155.331 35.4521C154.789 35.2941 154.258 35.2178 153.741 35.2178C152.744 35.2178 151.995 35.4112 151.491 35.7953C150.987 36.1794 150.736 36.6751 150.736 37.2826C150.736 37.7375 150.875 38.1025 151.15 38.3803C151.425 38.6554 151.774 38.8679 152.191 39.015C152.608 39.1621 153.169 39.3201 153.871 39.4944C154.705 39.7014 155.381 39.903 155.893 40.1046C156.407 40.3061 156.843 40.6085 157.2 41.0144C157.557 41.4202 157.737 41.9705 157.737 42.6623C157.737 43.2371 157.581 43.7601 157.274 44.2286C156.966 44.6999 156.492 45.073 155.852 45.3509C155.212 45.626 154.427 45.7649 153.496 45.7649C152.651 45.7649 151.842 45.6287 151.069 45.359Z" fill="white"/>
<path d="M162.82 34.2944H164.021V45.6669H162.82V34.2944Z" fill="white"/>
<path d="M178.204 39.9823H179.357V44.3188C178.825 44.7846 178.199 45.1415 177.472 45.3921C176.747 45.6427 175.982 45.7652 175.181 45.7652C174.045 45.7652 173.021 45.5174 172.111 45.0189C171.201 44.5204 170.487 43.8312 169.967 42.9487C169.447 42.0661 169.188 41.0773 169.188 39.985C169.188 38.89 169.447 37.9039 169.967 37.0214C170.487 36.1388 171.201 35.4497 172.111 34.9512C173.021 34.4527 174.05 34.2048 175.197 34.2048C176.063 34.2048 176.859 34.3438 177.586 34.6189C178.311 34.894 178.924 35.3026 179.422 35.8446L178.676 36.6074C177.777 35.7193 176.633 35.2753 175.249 35.2753C174.328 35.2753 173.497 35.4796 172.757 35.8855C172.016 36.2914 171.433 36.8552 171.01 37.5743C170.588 38.2935 170.376 39.0998 170.376 39.9878C170.376 40.8758 170.586 41.6766 171.01 42.393C171.435 43.1094 172.013 43.6705 172.748 44.0818C173.484 44.4932 174.312 44.7002 175.233 44.7002C176.401 44.7002 177.393 44.4087 178.204 43.8231V39.9823Z" fill="white"/>
<path d="M194.725 34.2944V45.6669H193.734L186.423 36.4409V45.6669H185.221V34.2944H186.213L193.54 43.5204V34.2944H194.725Z" fill="white"/>
<path d="M36.6089 51.812H36.8005V58.3274H40.7914V58.5107H36.6089V51.812Z" fill="white"/>
<path d="M46.4611 57.8192C46.007 57.3401 45.782 56.6361 45.782 55.703V51.8079H45.9737V55.6904C45.9737 56.5694 46.1778 57.236 46.5902 57.6817C47.0026 58.1275 47.5942 58.3524 48.3649 58.3524C49.1356 58.3524 49.7271 58.1275 50.1395 57.6817C50.552 57.236 50.7561 56.5736 50.7561 55.6904V51.8079H50.9477V55.703C50.9477 56.6361 50.7228 57.3401 50.2687 57.8192C49.8146 58.2983 49.1814 58.5357 48.3649 58.5357C47.5484 58.5357 46.9152 58.2983 46.4611 57.8192Z" fill="white"/>
<path d="M61.3541 58.5065L58.8588 55.1863L56.3634 58.5065H56.1343L58.7463 55.0447L56.3259 51.812H56.5634L58.8671 54.9031L61.1708 51.812H61.3999L58.9796 55.0447L61.5916 58.5065H61.3541Z" fill="white"/>
<path d="M67.4612 57.8192C67.0071 57.3401 66.7822 56.6361 66.7822 55.703V51.8079H66.9738V55.6904C66.9738 56.5694 67.1779 57.236 67.5903 57.6817C68.0028 58.1275 68.5943 58.3524 69.365 58.3524C70.1357 58.3524 70.7272 58.1275 71.1397 57.6817C71.5521 57.236 71.7562 56.5736 71.7562 55.6904V51.8079H71.9478V55.703C71.9478 56.6361 71.7229 57.3401 71.2688 57.8192C70.8147 58.2983 70.1815 58.5357 69.365 58.5357C68.5485 58.5357 67.9111 58.2983 67.4612 57.8192Z" fill="white"/>
<path d="M83.0165 58.5066L81.3127 56.1445C81.0877 56.1904 80.8294 56.2112 80.5295 56.2112H78.4549V58.5066H78.2633V51.8079H80.5295C81.3502 51.8079 81.9959 51.9995 82.4625 52.3869C82.929 52.7743 83.1623 53.3117 83.1623 54.0074C83.1623 54.5448 83.0207 54.9906 82.7332 55.353C82.4458 55.7154 82.0417 55.9612 81.5168 56.0945L83.2581 58.5066H83.0165ZM80.5462 56.032C81.3252 56.032 81.9209 55.8571 82.3417 55.5071C82.7582 55.1572 82.9665 54.6573 82.9665 54.0158C82.9665 53.3701 82.7582 52.8743 82.3417 52.5244C81.9251 52.1745 81.3252 51.9995 80.5462 51.9995H78.4507V56.0362H80.5462V56.032Z" fill="white"/>
<path d="M90.5817 56.232V58.5107H90.3901V56.232L87.6656 51.812H87.8864L90.4901 56.032L93.0938 51.812H93.3146L90.5817 56.232Z" fill="white"/>
<path d="M105.975 51.9912H103.488V51.8079H108.653V51.9912H106.166V58.5066H105.975V51.9912Z" fill="white"/>
<path d="M118.543 58.5066L116.839 56.1445C116.614 56.1904 116.356 56.2112 116.056 56.2112H113.981V58.5066H113.79V51.8079H116.056C116.877 51.8079 117.522 51.9995 117.989 52.3869C118.455 52.7743 118.689 53.3117 118.689 54.0074C118.689 54.5448 118.547 54.9906 118.26 55.353C117.972 55.7154 117.568 55.9612 117.043 56.0945L118.785 58.5066H118.543ZM116.077 56.032C116.856 56.032 117.452 55.8571 117.872 55.5071C118.289 55.1572 118.497 54.6573 118.497 54.0158C118.497 53.3701 118.289 52.8743 117.872 52.5244C117.456 52.1745 116.856 51.9995 116.077 51.9995H113.981V56.0362H116.077V56.032Z" fill="white"/>
<path d="M128.533 56.4903H124.438L123.5 58.5107H123.28L126.387 51.812H126.579L129.687 58.5107H129.466L128.533 56.4903ZM128.445 56.307L126.483 52.0703L124.521 56.307H128.445Z" fill="white"/>
<path d="M139.581 51.812L136.569 58.5107H136.377L133.365 51.812H133.586L136.477 58.2524L139.364 51.812H139.581Z" fill="white"/>
<path d="M149.091 58.3274V58.5107H144.634V51.812H148.95V51.9953H144.825V55.0197H148.516V55.203H144.825V58.3316H149.091V58.3274Z" fill="white"/>
<path d="M154.848 51.812H155.04V58.3274H159.031V58.5107H154.848V51.812Z" fill="white"/>
</svg>
