<svg width="18" height="16" viewBox="0 0 18 16" fill="none" xmlns="http://www.w3.org/2000/svg">
<path fill-rule="evenodd" clip-rule="evenodd" d="M13.5296 0.0500488C14.7141 0.0500488 15.8536 0.518211 16.6919 1.35825C17.5311 2.19653 18.0001 3.32719 18.0001 4.51084V11.4891C18.0001 13.9536 15.995 15.9499 13.5296 15.9499H4.80323C2.33787 15.9499 0.333601 13.9536 0.333601 11.4891V4.51084C0.333601 2.04636 2.32903 0.0500488 4.80323 0.0500488H13.5296ZM14.9349 5.82686L15.0056 5.75619C15.2167 5.50002 15.2167 5.12903 14.9959 4.87286C14.8731 4.74125 14.7044 4.66087 14.5286 4.6432C14.3431 4.63348 14.1664 4.6962 14.033 4.81986L10.0501 7.99984C9.53779 8.42471 8.80375 8.42471 8.28347 7.99984L4.3085 4.81986C4.03379 4.6167 3.65396 4.6432 3.42518 4.8817C3.18668 5.12019 3.16018 5.50002 3.36246 5.76502L3.47818 5.87985L7.49731 9.01566C7.99197 9.40432 8.59175 9.61632 9.21979 9.61632C9.84607 9.61632 10.4564 9.40432 10.9502 9.01566L14.9349 5.82686Z" fill="#F7981D"/>
</svg>
