<svg width="13" height="20" viewBox="0 0 13 20" fill="none" xmlns="http://www.w3.org/2000/svg">
<path fill-rule="evenodd" clip-rule="evenodd" d="M0.00765371 8.81903C0.00765371 8.2593 0.014394 7.69957 0.0211655 7.13724C0.0245985 6.85216 0.0280396 6.5664 0.0306145 6.27964C0.0306145 3.19864 1.95933 0.952255 4.62279 0.952255H8.04396C10.7074 0.952255 12.6361 3.19864 12.6361 6.27964C12.6591 7.51382 12.6667 8.748 12.6667 9.99105C12.6667 11.2341 12.6591 12.486 12.6361 13.7202C12.6361 16.8012 10.7074 19.0476 8.04396 19.0476H4.62279C1.95933 19.0476 0.0306145 16.8012 0.0306145 13.7113C0.0153072 12.5482 0 11.3584 0 10.1509L0.00765371 8.81903ZM7.49134 16.9125V17.0572C7.49134 17.6667 6.98177 18.143 6.33324 18.143C5.70014 18.143 5.17513 17.6667 5.17513 17.0572V16.9125C5.17513 16.3189 5.70014 15.8267 6.33324 15.8267C6.98177 15.8267 7.49134 16.3189 7.49134 16.9125ZM1.82454 6.78225C1.81971 7.14776 1.81489 7.51159 1.81489 7.87541L1.80942 8.74111C1.80942 9.52602 1.82036 10.2994 1.83129 11.0554C1.83129 13.0638 3.20894 14.524 5.11142 14.524H7.55511C9.45758 14.524 10.8352 13.0638 10.8352 11.0612C10.8516 10.259 10.8571 9.44522 10.8571 8.63723C10.8571 7.82924 10.8516 7.02703 10.8352 6.22481C10.8352 4.22216 9.45758 2.76201 7.55511 2.76201H5.11142C3.20894 2.76201 1.83129 4.22216 1.83129 6.22481C1.82945 6.41121 1.827 6.59694 1.82454 6.78225Z" fill="#F7981D"/>
</svg>
